<svg width="151" height="96" viewBox="0 0 151 96" fill="none" xmlns="http://www.w3.org/2000/svg">
<path fill-rule="evenodd" clip-rule="evenodd" d="M135.772 0L0 11.7145L7.32542 94.2968L143.107 82.5814L135.779 0L135.772 0ZM5.53516 16.2959L131.135 5.4586L137.571 78L11.9702 88.8382L5.53516 16.2959Z" fill="#0A0A0A"/>
<path fill-rule="evenodd" clip-rule="evenodd" d="M123.055 50.8963L21.541 59.6553L21.4221 58.3169L122.935 49.5577L123.055 50.8963ZM48.2612 48.6108L42.4288 49.1132L36.1504 33.2285L36.0467 33.2377L32.6611 49.9568L26.795 50.4627L17.7207 26.9651L24.0709 26.4172L29.3588 42.113L29.4625 42.1056L32.3867 25.7001L38.5313 25.1699L44.3361 40.8219L44.44 40.8125L46.9518 24.4434L53.0955 23.9132L48.2612 48.6108ZM61.2028 47.4945L59.0655 23.3977L65.0016 22.8862L67.1389 46.982L61.2028 47.4945ZM90.2163 44.9912L78.9819 30.0815L78.8791 30.0906L80.4156 45.8366L74.6862 46.3316L72.5486 22.2349L79.278 21.6545L90.4746 36.5325L90.5785 36.5233L89.0448 20.8117L94.7744 20.3176L96.9117 44.4134L90.2163 44.9912ZM105.402 43.6813L103.264 19.5847L119.691 18.167L120.126 23.0684L109.393 23.994L109.799 28.5549L119.944 27.6795L120.358 32.342L110.212 33.2173L110.655 38.2209L122.009 37.2413L122.45 42.2087L105.402 43.6813ZM23.8141 69.3111C23.6917 67.9334 23.6095 67.7577 22.6926 67.6396C22.4049 67.5987 22.221 67.4163 22.2088 67.2683C22.1862 67.0227 22.5776 66.9066 22.7445 66.8917C23.0605 66.8647 24.1141 66.8397 24.8451 66.7771C25.8432 66.6899 26.6535 66.5706 27.1355 66.5289C27.3845 66.5084 27.6636 66.6164 27.6826 66.8294C27.6987 67.0256 27.4279 67.1819 27.2987 67.2257C26.4998 67.4768 26.4685 67.6936 26.478 68.5531C26.4902 69.2609 26.6007 70.6897 26.6997 71.8042C26.8581 73.592 26.9478 74.2283 26.9666 74.4415C27.0684 75.2089 27.1798 75.5299 28.0297 75.6554C28.3523 75.7112 28.5834 75.8554 28.6031 76.0851C28.6212 76.2814 28.2635 76.4106 28.0645 76.4294C27.8977 76.4432 26.2799 76.5334 25.7158 76.5819C25.1337 76.6321 23.9255 76.8033 23.6265 76.8284C23.4096 76.8471 23.0557 76.8284 23.0331 76.566C23.017 76.3856 23.2642 76.1494 23.4906 76.0637C24.1367 75.794 24.2198 75.5884 24.2594 75.089C24.2782 74.7391 24.2689 74.4433 24.1501 73.0982L23.8141 69.312V69.3111ZM32.583 65.9931C33.2479 65.9364 34.5883 65.9364 35.6533 65.8442C35.8022 65.8312 36.0456 65.9261 36.1004 65.9866C36.4173 66.34 36.9824 66.8526 37.8549 67.6367C38.82 68.4944 41.7091 71.0387 42.0931 71.2043C42.144 71.2155 42.2742 71.1717 42.2873 71.1206C42.3468 70.6694 42.2072 69.0945 42.0573 67.9689C41.9081 66.8573 41.9534 66.4237 40.6299 66.2413C40.2224 66.1773 40.049 65.9102 40.0395 65.8127C40.0291 65.6982 40.1905 65.4367 40.5894 65.4023C41.1884 65.3494 41.1563 65.3697 41.5893 65.3316C42.2703 65.2722 43.5268 65.0815 43.8589 65.0536C44.208 65.0237 44.4502 65.1018 44.4749 65.38C44.4909 65.5604 44.3682 65.687 43.8571 65.9623C43.2005 66.3159 43.1165 66.5057 43.1193 66.7196C43.1523 67.4768 43.3194 70.8665 43.4174 71.9661C43.4806 72.6861 43.6117 73.4023 43.6787 74.1558C43.7391 74.8452 43.6504 75.3651 43.3522 75.3913C42.8202 75.4359 42.3618 75.1783 42.0138 74.8452C41.3374 74.2098 40.4762 73.3755 39.965 72.9075C39.2698 72.2404 36.4325 69.7261 35.6306 69.0014C35.577 68.9568 35.4703 69.0646 35.4751 69.1316C35.4909 69.4944 35.4617 69.5455 35.524 70.2499C35.5901 70.9875 35.756 72.4778 35.8108 72.9196C35.974 74.193 36.2258 74.5679 36.8277 74.7474C37.4125 74.9121 37.6106 75.0767 37.6314 75.3055C37.6484 75.5029 37.4766 75.633 37.0938 75.6665C36.6276 75.7065 36.056 75.6906 35.275 75.7576C34.4939 75.8246 34.0846 75.9251 33.8696 75.9438C33.3697 75.9885 33.1865 75.8228 33.1716 75.6583C33.1526 75.4442 33.3403 75.2796 33.6309 75.1559C34.3742 74.8432 34.6685 74.7679 34.6544 73.6628C34.6402 72.5559 34.4233 68.6108 34.3771 68.0861C34.3676 67.9874 34.2544 67.6507 34.0167 67.4219C33.6328 67.0591 33.3158 66.8879 32.9253 66.8394C32.5366 66.7903 32.2027 66.6209 32.1755 66.3092C32.166 66.1949 32.2839 66.019 32.583 65.9931ZM55.5839 64.2564C55.6858 64.2646 55.8252 64.5167 55.8413 64.6973C55.8583 64.8935 56.0546 65.7857 56.0772 66.0321C56.1261 66.5883 55.88 66.8414 55.648 66.8609C55.465 66.8776 55.2905 66.6117 55.2282 66.486C54.7755 65.5325 53.8321 64.7223 52.8851 64.8042C52.187 64.8636 51.6117 65.5577 51.6663 66.1808C51.7324 66.9196 52.3296 67.4125 53.3189 67.807C55.5074 68.6748 56.8186 69.487 56.9572 71.0442C57.076 72.3894 56.2121 73.2237 55.6461 73.6358C55.0302 74.0694 53.9575 74.4424 53.1935 74.5083C51.7786 74.6302 50.9391 74.406 50.5429 74.2917C50.4223 74.2515 50.1438 74.1278 50.044 73.9548C49.7092 73.3893 49.5835 72.5409 49.5487 72.1473C49.5204 71.835 49.6526 71.4273 49.9186 71.4041C50.1015 71.3883 50.3344 71.566 50.6052 71.9716C51.3192 73.035 52.3058 73.7595 53.337 73.6702C53.9358 73.6182 54.6471 73.1446 54.5801 72.3894C54.5357 71.8973 54.5217 71.3539 52.7464 70.5986C50.4655 69.6386 49.5394 68.8266 49.4035 67.3009C49.3091 66.2358 49.9967 65.301 50.7562 64.7893C51.357 64.3894 52.136 64.1075 53.0841 64.0266C54.0141 63.9456 54.9226 64.1662 55.5839 64.2564ZM62.8045 65.9466C62.682 64.5698 62.5998 64.395 61.6839 64.2749C61.3952 64.234 61.2123 64.0516 61.1992 63.9047C61.1775 63.6583 61.5689 63.5419 61.7348 63.5279C62.0518 63.5 63.1036 63.4759 63.8366 63.4127C64.8345 63.3261 65.6448 63.2071 66.1267 63.166C66.3758 63.1437 66.6531 63.2517 66.6721 63.4647C66.69 63.6618 66.4183 63.8181 66.2891 63.8619C65.4901 64.113 65.4589 64.3298 65.4684 65.1894C65.4815 65.8964 65.5911 67.3261 65.6891 68.4415C65.8476 70.2276 65.9381 70.8647 65.9569 71.0786C66.0588 71.8451 66.1702 72.1661 67.0201 72.2916C67.3427 72.3465 67.5738 72.4916 67.5946 72.7213C67.6116 72.9187 67.255 73.0471 67.0549 73.0656C66.889 73.0797 65.2712 73.1699 64.7062 73.2181C64.1243 73.2683 62.9159 73.4387 62.6168 73.4648C62.4 73.4833 62.0472 73.4648 62.0235 73.2025C62.0076 73.0209 62.2546 72.7847 62.4819 72.7001C63.1282 72.4293 63.2111 72.2237 63.2498 71.7252C63.2686 71.3762 63.2593 71.0786 63.1405 69.7344L62.8045 65.9466ZM75.953 63.2591C75.8879 63.2982 75.7502 63.6237 75.7559 63.6889C75.7728 64.2488 75.7681 64.9605 75.8783 66.1911L75.9823 67.3708C76.1681 69.4703 76.2587 69.7261 76.3519 70.2144C76.4151 70.5558 76.6293 70.8842 76.8425 71.0302C77.0397 71.1623 77.6623 71.3894 77.8791 71.3715C78.0612 71.3548 78.9423 71.0813 79.6119 70.3298C80.2976 69.5596 80.491 68.1549 80.3948 67.0562C80.2884 65.8591 79.8628 64.6562 78.9423 63.9112C78.1461 63.2508 77.2706 63.0135 76.7397 63.0599C76.6066 63.0711 76.0633 63.1838 75.953 63.2591ZM81.255 63.166C82.7548 64.2097 83.168 65.6441 83.2576 66.6608C83.4804 69.1698 81.8993 70.6116 81.0447 71.1809C79.9205 71.9056 78.6837 72.1447 77.4538 72.2507C76.7717 72.3094 74.9483 72.3344 74.4163 72.3809C73.8834 72.4275 73.1354 72.4907 72.344 72.6256C72.212 72.6535 72.0685 72.5503 72.0592 72.4349C72.0422 72.2554 72.2573 71.8395 72.6627 71.6908C73.1816 71.4954 73.4685 71.5204 73.5364 70.7708C73.5957 70.1213 73.523 69.302 73.3315 67.1373C73.1316 64.8897 73.1402 64.6089 72.9731 64.0452C72.924 63.8684 72.8685 63.6248 72.0723 63.5279C71.6666 63.4806 71.4176 63.3205 71.397 63.0908C71.3753 62.8443 71.6327 62.7233 72.1147 62.6813L73.2636 62.5996C73.8465 62.5661 75.4973 62.2906 76.6614 62.1904C78.2583 62.0526 79.9345 62.2553 81.255 63.166ZM92.9509 60.9011C94.464 60.7707 94.6961 60.7504 95.0714 60.6349C95.1364 60.6146 95.2063 60.6148 95.2713 60.6358C95.3365 60.657 95.3931 60.6977 95.4336 60.7521C95.5477 60.9075 95.792 62.1419 95.8232 62.5038C95.8608 62.9289 95.6704 63.0452 95.5704 63.0535C95.2713 63.0796 95.0893 62.9139 94.8507 62.488C94.4753 61.8423 94.2317 61.7483 94.0989 61.7595C93.1507 61.8414 92.2404 61.9698 92.0075 61.9903C91.9246 61.9968 91.8076 62.1884 91.8133 62.2544C91.8255 62.567 91.8963 63.7511 91.9962 64.8824C92.0188 65.1447 92.084 65.3048 92.1689 65.313C92.3566 65.3465 92.9366 65.2796 93.2347 65.2387C93.978 65.1242 94.1874 64.8415 94.3348 64.4162C94.412 64.1624 94.5611 63.9512 94.7441 63.9344C94.977 63.9139 95.1459 64.1316 95.1563 64.6098C95.1563 64.8069 95.1733 65.1865 95.2063 65.5633C95.2403 65.9411 95.3073 66.315 95.3449 66.5595C95.4176 66.9986 95.1864 67.2181 95.0196 67.2313C94.8695 67.2451 94.6383 67.0832 94.4593 66.768C94.2591 66.4061 94.1987 66.2954 93.8478 66.2927C93.1612 66.3018 93.0584 66.2777 92.3104 66.3429C92.2273 66.3494 92.1472 66.5874 92.1839 66.9977C92.2235 67.4396 92.3575 68.3875 92.4057 68.7465C92.4811 69.2191 92.5642 69.3939 92.6196 69.4553C92.8084 69.6871 93.6244 69.8313 94.4235 69.7623C94.6884 69.7382 95.1497 69.6507 95.5147 69.4033C95.8155 69.2126 95.9638 69.0006 96.2864 68.4777C96.5203 68.0935 96.6683 67.6851 96.9343 67.661C97.2504 67.6349 97.3919 68.1011 97.3561 68.4516C97.2984 68.9354 96.9966 70.0693 96.9448 70.222C96.9042 70.3401 96.5712 70.5522 96.4712 70.5604C96.2543 70.5792 95.5826 70.554 92.5565 70.8145C91.5085 70.9056 89.4192 71.1512 88.7043 71.2135C88.3552 71.2434 88.0949 71.1344 88.0826 71.0034C88.0647 70.8069 88.1768 70.566 88.5184 70.4368C89.6381 70.0266 89.6381 69.646 89.6456 69.3484C89.6408 68.5558 89.6286 68.2089 89.404 65.6832C89.1797 63.1595 89.138 63.0628 89.0608 62.7726C88.9343 62.2888 88.7022 62.1261 88.0231 62.0191C87.5816 61.9586 87.4949 61.7354 87.4854 61.619C87.4666 61.4078 87.7883 61.2639 88.0043 61.2451C88.2873 61.2201 90.1407 61.1428 91.2369 61.0489L92.9499 60.8999L92.9509 60.9011ZM105.775 60.6041C105.709 60.6088 105.464 60.6963 105.371 60.7698C105.324 60.808 105.281 60.8944 105.294 61.0415C105.334 61.5009 105.504 63.0229 105.601 64.1215C105.606 64.1865 105.691 64.3772 105.76 64.4059C106.001 64.4832 106.222 64.514 106.505 64.4897C106.871 64.4582 107.436 64.0293 107.529 63.955C107.624 63.8804 107.939 63.2758 107.869 62.4888C107.777 61.4563 106.971 60.5001 105.775 60.6032M109.806 63.7418C109.575 63.9764 109.347 64.0461 109.016 64.2731C108.937 64.3289 109.047 64.6339 109.106 64.7279C109.536 65.4164 110.392 66.5671 111.094 67.2991C111.74 67.9698 112.28 68.2051 112.813 68.3578C112.984 68.408 113.214 68.5373 113.228 68.6842C113.265 69.1122 112.744 69.2888 112.296 69.327C110.965 69.4415 109.673 69.4209 108.377 68.0285C107.709 67.3103 107.189 66.5289 106.657 65.8312C106.353 65.4273 106.113 65.366 105.847 65.3894C105.732 65.3985 105.732 65.5977 105.736 65.647C105.853 66.9587 105.887 67.352 105.988 67.9213C106.09 68.5074 106.259 68.5094 106.95 68.7641C107.263 68.8851 107.478 69.0479 107.49 69.1792C107.507 69.3604 107.178 69.619 106.895 69.6433C106.479 69.6795 105.194 69.7241 104.611 69.7744C104.096 69.819 103.32 69.9521 102.705 70.007C102.305 70.0396 102.055 69.8637 102.04 69.7C102.021 69.4703 102.238 69.2861 102.547 69.1763C103.212 68.9204 103.367 68.7753 103.327 67.953C103.291 67.3605 103.265 67.0656 103.004 64.1139C102.824 62.0973 102.766 62.0033 102.702 61.6619C102.639 61.3364 102.461 61.0218 101.819 60.9613C101.498 60.9232 101.276 60.6934 101.266 60.58C101.241 60.3009 101.56 60.1241 101.959 60.0906C102.808 60.0163 103.093 60.0257 103.309 60.0069C104.406 59.912 105.312 59.7345 106.476 59.635C107.939 59.5075 108.732 59.7531 109.157 60.0145C109.921 60.4936 110.327 61.1205 110.404 61.9894C110.46 62.6125 110.206 63.3437 109.806 63.742V63.7418ZM123.207 58.4216C123.308 58.4292 123.447 58.6821 123.464 58.8616C123.481 59.059 123.677 59.952 123.7 60.1974C123.749 60.7546 123.503 61.0067 123.271 61.0272C123.088 61.0422 122.912 60.776 122.852 60.6506C122.399 59.697 121.456 58.8877 120.508 58.9697C119.81 59.0291 119.234 59.7232 119.29 60.3463C119.356 61.0839 119.951 61.5771 120.942 61.9725C123.13 62.8403 124.441 63.6525 124.58 65.2097C124.7 66.5548 123.835 67.3891 123.269 67.8021C122.653 68.2348 121.58 68.6076 120.816 68.6737C119.402 68.7956 118.562 68.5715 118.166 68.4569C118.045 68.417 117.766 68.2924 117.667 68.1194C117.332 67.5536 117.206 66.7055 117.172 66.3119C117.143 66.0002 117.275 65.5928 117.541 65.5696C117.724 65.5537 117.958 65.7314 118.229 66.1371C118.943 67.2002 119.928 67.924 120.96 67.8356C121.558 67.7836 122.27 67.3101 122.203 66.5548C122.16 66.0636 122.143 65.5193 120.368 64.7632C118.088 63.8049 117.161 62.9918 117.026 61.4672C116.932 60.4003 117.62 59.4653 118.379 58.9547C118.98 58.5555 119.758 58.2729 120.707 58.1919C121.638 58.1119 122.545 58.3305 123.207 58.4216Z" fill="#0A0A0A"/>
<path fill-rule="evenodd" clip-rule="evenodd" d="M147.517 79.6569L148.023 79.6122C148.264 79.5928 148.426 79.5417 148.508 79.4635C148.547 79.426 148.577 79.3802 148.596 79.3293C148.614 79.2784 148.621 79.2242 148.614 79.1704C148.609 79.0969 148.579 79.0271 148.531 78.9703C148.483 78.9139 148.418 78.8737 148.345 78.8552C148.267 78.8328 148.126 78.8308 147.924 78.8476L147.449 78.8886L147.517 79.6569ZM147.229 81.1239L147.002 78.5797L147.889 78.5035C148.192 78.4774 148.414 78.4812 148.553 78.5165C148.692 78.5517 148.809 78.6254 148.899 78.735C148.99 78.8449 149.042 78.9668 149.054 79.0978C149.07 79.284 149.016 79.4515 148.894 79.6011C148.764 79.7547 148.58 79.854 148.379 79.8792C148.474 79.9091 148.551 79.9471 148.61 79.9947C148.724 80.0857 148.865 80.2429 149.037 80.4673L149.395 80.9379L148.887 80.9808L148.623 80.6001C148.415 80.3007 148.251 80.1156 148.135 80.0449C148.053 79.9938 147.94 79.9741 147.793 79.9862L147.549 80.0076L147.645 81.0886L147.229 81.1239ZM147.989 77.7527C147.645 77.7846 147.314 77.9016 147.028 78.0932C146.727 78.2876 146.49 78.5636 146.345 78.8877C146.193 79.2188 146.132 79.5575 146.162 79.8998C146.192 80.2411 146.31 80.5602 146.514 80.856C146.718 81.1538 146.988 81.375 147.321 81.5222C147.654 81.67 147.994 81.7287 148.339 81.6988C148.685 81.6691 149.008 81.5519 149.31 81.35C149.613 81.1482 149.839 80.8839 149.987 80.5566C150.135 80.23 150.194 79.896 150.164 79.5546C150.132 79.2074 150.009 78.8743 149.807 78.5881C149.608 78.2932 149.325 78.0621 148.994 77.9231C148.679 77.7837 148.333 77.7253 147.989 77.7527ZM147.955 77.3602C148.357 77.3258 148.759 77.3937 149.16 77.565C149.562 77.7351 149.887 78.0003 150.135 78.362C150.383 78.723 150.524 79.1081 150.56 79.5202C150.597 79.9277 150.526 80.3286 150.349 80.7229C150.177 81.1105 149.896 81.4411 149.54 81.6755C149.194 81.9106 148.793 82.0533 148.374 82.0895C147.956 82.1254 147.535 82.0537 147.153 81.8812C146.76 81.7113 146.425 81.4335 146.187 81.0812C145.948 80.7414 145.802 80.346 145.765 79.9341C145.729 79.5178 145.803 79.0994 145.981 78.7203C146.155 78.3307 146.441 77.9996 146.802 77.7677C147.146 77.5382 147.542 77.398 147.955 77.3602Z" fill="#0A0A0A"/>
</svg>
